<svg width="416" height="258" viewBox="0 0 416 258" fill="none" xmlns="http://www.w3.org/2000/svg">
<path d="M17.5998 0.200195C8.32254 0.200195 0.798828 7.71971 0.798828 17.0012C0.798828 26.2785 8.32224 33.8022 17.5998 33.8022H398.4C407.677 33.8022 415.201 26.2788 415.201 17.0012C415.201 7.72361 407.677 0.200195 398.4 0.200195H17.5998ZM17.5998 112.2C8.32254 112.2 0.798828 119.72 0.798828 129.001C0.798828 138.279 8.32224 145.802 17.5998 145.802H398.4C407.677 145.802 415.201 138.279 415.201 129.001C415.201 119.724 407.677 112.2 398.4 112.2H17.5998ZM17.5998 224.2C8.32254 224.2 0.798828 231.72 0.798828 241.001C0.798828 250.279 8.32224 257.802 17.5998 257.802H398.4C407.677 257.802 415.201 250.279 415.201 241.001C415.201 231.724 407.677 224.2 398.4 224.2H17.5998Z" fill="black"/>
</svg>
